# AST/ASF file generated using VICON BodyLanguage
# -----------------------------------------------
:version 1.10
:name VICON
:units
  mass 1.0
  length 0.45
  angle deg
:documentation
   .ast/.asf automatically generated from VICON data using
   VICON BodyBuilder and BodyLanguage model FoxedUp or BRILLIANT.MOD
:root
   order TX TY TZ RX RY RZ
   axis XYZ
   position 0 0 0  
   orientation 0 0 0 
:bonedata
  begin
     id 1 
     name lhipjoint
     direction 0.61886 -0.69539 0.365302 
     length 2.20474 
     axis 0 0 0  XYZ
  end
  begin
     id 2 
     name lfemur
     direction 0.34202 -0.939693 0  
     length 6.65149  
     axis 0 0 20  XYZ
    dof rx ry rz
    limits (-160.0 20.0)
           (-70.0 70.0)
           (-60.0 70.0)
  end
  begin
     id 3 
     name ltibia
     direction 0.34202 -0.939693 0   
     length 6.35814   
     axis 0 0 20   XYZ
    dof rx
    limits (-10.0 170.0)
  end
  begin
     id 4 
     name lfoot
     direction 0.101224 -0.278109 0.955201   
     length 2.18766   
     axis -90 7.62852e-016 20   XYZ
    dof rx rz
    limits (-45.0 90.0)
           (-70.0 20.0)
  end
  begin
     id 5 
     name ltoes
     direction 1.53524e-011 -4.21877e-011 1   
     length 1.09206   
     axis -90 7.62852e-016 20   XYZ
    dof rx
    limits (-90.0 20.0)
  end
  begin
     id 6 
     name rhipjoint
     direction -0.600207 -0.708087 0.371972   
     length 2.1652  
     axis 0 0 0  XYZ 
  end
  begin
     id 7 
     name rfemur
     direction -0.34202 -0.939693 0   
     length 6.54691   
     axis 0 0 -20   XYZ
    dof rx ry rz
    limits (-160.0 20.0)
           (-70.0 70.0)
           (-70.0 60.0)
  end
  begin
     id 8 
     name rtibia
     direction -0.34202 -0.939693 0   
     length 6.37474   
     axis 0 0 -20   XYZ
    dof rx
    limits (-10.0 170.0)
 end
 begin
     id 9 
     name rfoot
     direction -0.111266 -0.3057 0.945604   
     length 2.00903  
     axis -90 -7.62852e-016 -20   XYZ
    dof rx rz
    limits (-45.0 90.0)
           (-20.0 70.0)
  end
  begin
     id 10 
     name rtoes
     direction -1.5362e-011 -4.21913e-011 1   
     length 1.00221   
     axis -90 -7.62852e-016 -20   XYZ
    dof rx
    limits (-90.0 20.0)
  end
  begin
     id 11 
     name lowerback
     direction -0.0224561 0.999731 -0.00577314   
     length 2.10409   
     axis 0 0 0   XYZ
    dof rx ry rz
    limits (-20.0 45.0)
           (-30.0 30.0)
           (-30.0 30.0)
  end
  begin
     id 12 
     name upperback
     direction 0.0213126 0.999185 -0.0342817   
     length 2.09783   
     axis 0 0 0   XYZ
    dof rx ry rz
    limits (-20.0 45.0)
           (-30.0 30.0)
           (-30.0 30.0)
  end
  begin
     id 13 
     name thorax
     direction 0.0312356 0.999036 -0.0308451   
     length 2.09788   
     axis 0 0 0   XYZ
    dof rx ry rz
    limits (-20.0 45.0)
           (-30.0 30.0)
           (-30.0 30.0)
  end
  begin
     id 14 
     name lowerneck
     direction -0.0114419 0.996481 0.0830329   
     length 1.38575   
     axis 0 0 0   XYZ
    dof rx ry rz
    limits (-20.0 45.0)
           (-30.0 30.0)
           (-30.0 30.0)
  end
  begin
     id 15 
     name upperneck
     direction -0.0075675 0.996187 -0.0869092   
     length 1.39401   
     axis 0 0 0   XYZ
    dof rx ry rz
    limits (-20.0 45.0)
           (-30.0 30.0)
           (-30.0 30.0)
  end
  begin
     id 16
     name head
     direction -0.00222073 0.999264 -0.0382974  
     length 1.3964  
     axis 0 0 0   XYZ
    dof rx ry rz
    limits (-20.0 45.0)
           (-30.0 30.0)
           (-30.0 30.0)
  end
  begin
     id 17 
     name lclavicle
     direction 0.965962 0.222138 0.132556  
     length 2.81514  
     axis 0 0 0   XYZ
    dof ry rz
    limits (-20.0 10.0)
           (0.0 20.0)
  end
  begin
     id 18 
     name lhumerus
     direction 1 -4.48972e-011 7.03471e-018   
     length 4.47366   
     axis 180 -30 -90   XYZ
    dof rx ry rz
    limits (-60.0 90.0)
           (-90.0 90.0)
           (-90.0 90.0)
  end
  begin
     id 19
     name lradius
     direction 1 -4.48951e-011 -6.22192e-028   
     length 3.19948   
     axis 180 -30 -90   XYZ
    dof rx
    limits (-10.0 170.0)
  end
  begin
     id 20
     name lwrist
     direction 1 -4.48967e-011 -1.24264e-027   
     length 1.59974   
     axis 1.40095e-015 90 90   XYZ
    dof ry
    limits (-180.0 0.0)
 end
  begin
     id 21 
     name lhand
     direction 1 -4.4897e-011 -2.48528e-027   
     length 0.492667   
     axis 1.58582e-015 90 90   XYZ
    dof rx rz
    limits (-90.0 90.0)
           (-45.0 45.0)
  end
  begin
     id 22 
     name lfingers
     direction 1 -4.48996e-011 -4.97056e-027   
     length 0.397201   
     axis 3.17164e-015 90 90   XYZ
    dof rx
    limits (0.0 90.0)
  end
  begin
     id 23
     name lthumb
     direction 0.707107 -6.34981e-011 0.707107   
     length 0.570303   
     axis -90 45 2.85299e-015   XYZ
    dof rx rz
    limits (-45.0 45.0)
           (-45.0 45.0)
  end
  begin
     id 24 
     name rclavicle
     direction -0.961164 0.229034 0.153972   
     length 3.09348  
     axis 0 0 0   XYZ 
    dof ry rz
    limits (-10.0 20.0)
           (-20.0 0.0)
  end
  begin
     id 25 
     name rhumerus
     direction -1 -4.48971e-011 -9.06263e-028  
     length 4.3269   
     axis 180 30 90   XYZ
    dof rx ry rz
    limits (-90.0 60.0)
           (-90.0 90.0)
           (-90.0 90.0)
  end
  begin
     id 26 
     name rradius
     direction -1 -4.48953e-011 1.44659e-027   
     length 3.1896   
     axis 180 30 90   XYZ
    dof rx
    limits (-10.0 170.0)
  end
  begin
     id 27 
     name rwrist
     direction -1 -4.48988e-011 -1.24264e-027   
     length 1.5948   
     axis 1.40095e-015 -90 -90   XYZ
    dof ry
    limits (-180.0 0.0)
  end
  begin
     id 28
     name rhand
     direction -1 -4.49033e-011 -2.48528e-027   
     length 0.464496   
     axis 1.58582e-015 -90 -90   XYZ
    dof rx rz
    limits (-90.0 90.0)
           (-45.0 45.0)
  end
  begin
     id 29
     name rfingers
     direction -1 -4.48905e-011 -4.97056e-027   
     length 0.374489   
     axis 3.17164e-015 -90 -90   XYZ
    dof rx
    limits (0.0 90.0)
  end
  begin
     id 30
     name rthumb
     direction -0.707107 -6.34909e-011 0.707107   
     length 0.537693   
     axis -90 -45 -2.85299e-015   XYZ
    dof rx rz
    limits (-45.0 45.0)
           (-45.0 45.0)
  end
:hierarchy
  begin
    root lhipjoint rhipjoint lowerback
    lhipjoint lfemur
    lfemur ltibia
    ltibia lfoot
    lfoot ltoes
    rhipjoint rfemur
    rfemur rtibia
    rtibia rfoot
    rfoot rtoes
    lowerback upperback
    upperback thorax
    thorax lowerneck lclavicle rclavicle
    lowerneck upperneck
    upperneck head
    lclavicle lhumerus
    lhumerus lradius
    lradius lwrist
    lwrist lhand lthumb
    lhand lfingers
    rclavicle rhumerus
    rhumerus rradius
    rradius rwrist
    rwrist rhand rthumb
    rhand rfingers
  end

#!OML:ASF G:\acrobat\cartwheel_test 2\Patient 1\Session 2\acrobat4.ASF
:FULLY-SPECIFIED
:DEGREES
193
root 7.8873 13.3781 14.4533 -138.022 -23.8673 -198.042
lowerback 26.4194 0.367537 7.02678
upperback 3.48112 1.93334 -0.099427
thorax -10.5293 0.400669 -4.78802
lowerneck -8.01107 -2.06522 4.13435
upperneck -5.91747 -3.91328 -10.1487
head -0.801707 -2.28879 -4.13792
rclavicle -2.54444e-014 -2.38542e-014
rhumerus -4.9933 -8.23054 -41.0019
rradius 29.2728
rwrist -1.48891
rhand -13.3996 -31.4149
rfingers 7.12502
rthumb 12.708 -421.008
lclavicle -2.54444e-014 -2.38542e-014
lhumerus -37.1751 -19.7865 79.9281
lradius 66.567
lwrist 26.9007
lhand -44.4304 3.375
lfingers 7.12502
lthumb -17.2355 32.6307
rfemur -86.3632 -22.8659 27.2991
rtibia 82.4513
rfoot -23.3385 -22.3599
rtoes -8.48147
lfemur -16.5584 -17.5201 -6.76398
ltibia 23.7008
lfoot -217.179 203.306
ltoes -22.3416
194
root 7.78109 13.4878 14.6471 -140.14 -24.2176 -197.259
lowerback 26.1171 0.375438 6.28795
upperback 3.42559 1.70404 -0.293475
thorax -10.4851 0.324876 -4.49736
lowerneck -7.68719 -2.14078 3.05171
upperneck -5.57282 -3.83578 -9.23452
head -0.698017 -2.20661 -3.59589
rclavicle 4.77083e-014 6.36111e-015
rhumerus -8.87298 -6.82587 -42.2158
rradius 30.0171
rwrist -1.47519
rhand -13.9182 -31.7583
rfingers 7.12502
rthumb 12.208 -421.382
lclavicle 4.77083e-014 6.36111e-015
lhumerus -38.167 -22.7812 84.0945
lradius 69.8225
lwrist 22.695
lhand -46.3249 11.2837
lfingers 7.12502
lthumb -19.0582 40.37
rfemur -83.8331 -23.4006 26.7882
rtibia 80.5852
rfoot -22.9186 -21.7285
rtoes -7.43933
lfemur -14.5914 -15.8723 -7.11849
ltibia 22.9621
lfoot -214.713 201.919
ltoes -27.3656
195
root 7.67205 13.6 14.8444 -142.405 -24.4427 -196.43
lowerback 25.9599 0.373726 5.42848
upperback 3.41131 1.4344 -0.447615
thorax -10.4739 0.23074 -4.08112
lowerneck -7.40557 -2.19182 2.03735
upperneck -5.2708 -3.74523 -8.30033
head -0.604319 -2.12343 -3.07441
rclavicle 3.02153e-014 3.81667e-014
rhumerus -12.5325 -5.41601 -43.5482
rradius 30.7006
rwrist -1.55449
rhand -14.4186 -32.432
rfingers 7.12502
rthumb 11.7255 -422.084
lclavicle 3.02153e-014 3.81667e-014
lhumerus -39.1629 -25.1202 87.6596
lradius 73.5113
lwrist 20.9973
lhand -47.362 11.4794
lfingers 7.12502
lthumb -20.0552 40.4644
rfemur -81.0034 -23.7592 26.0769
rtibia 78.5337
rfoot -22.0852 -21.3123
rtoes -7.38018
lfemur -12.4628 -13.781 -7.61575
ltibia 22.2937
lfoot -212.93 199.675
ltoes -28.066
196
root 7.55847 13.7167 15.0461 -144.757 -24.6997 -195.411
lowerback 25.7592 0.288387 4.69848
upperback 3.49091 1.0834 -0.54708
thorax -10.3312 0.0950497 -3.64726
lowerneck -7.3755 -2.14209 1.22199
upperneck -4.86512 -3.5309 -7.37922
head -0.436305 -1.99025 -2.6107
rclavicle -4.77083e-015 4.77083e-015
rhumerus -15.8025 -4.39628 -45.0495
rradius 31.4437
rwrist -1.71743
rhand -13.5933 -33.1225
rfingers 7.12502
rthumb 12.5213 -422.727
lclavicle -4.77083e-015 4.77083e-015
lhumerus -39.9936 -27.2015 90.9347
lradius 77.398
lwrist 18.3225
lhand -43.6437 2.29727
lfingers 7.12502
lthumb -16.4781 31.6175
rfemur -78.0767 -23.9843 25.5403
rtibia 76.3246
rfoot -20.6763 -21.1389
rtoes -7.83343
lfemur -10.3394 -11.5273 -7.97308
ltibia 21.6381
lfoot -211.208 197.467
ltoes -30.331
197
root 7.43878 13.8482 15.2506 -147.024 -24.8954 -194.232
lowerback 25.3605 0.17104 4.11922
upperback 3.63024 0.726996 -0.608993
thorax -10.0072 -0.0457044 -3.25367
lowerneck -7.61475 -2.03617 0.422891
upperneck -4.3051 -3.22892 -6.33471
head -0.176537 -1.81945 -2.12435
rclavicle -1.74931e-014 3.65764e-014
rhumerus -18.6975 -3.8364 -46.5295
rradius 32.2055
rwrist -1.7501
rhand -12.4703 -33.3783
rfingers 7.12502
rthumb 13.6037 -422.914
lclavicle -1.74931e-014 3.65764e-014
lhumerus -40.2778 -28.802 93.5984
lradius 81.0904
lwrist 16.9179
lhand -43.428 1.43183
lfingers 7.12502
lthumb -16.2705 30.7692
rfemur -75.2024 -23.9883 25.012
rtibia 73.9661
rfoot -19.6421 -20.5568
rtoes -6.58398
lfemur -8.40511 -9.53107 -8.23351
ltibia 21.0269
lfoot -209.595 195.393
ltoes -33.8157
198
root 7.31545 13.9967 15.4616 -149.173 -24.9282 -193.045
lowerback 25.0184 0.0250404 3.55727
upperback 3.69492 0.351459 -0.704039
thorax -9.79267 -0.200974 -2.90681
lowerneck -7.89075 -1.91149 -0.43623
upperneck -3.63446 -2.8858 -5.0717
head 0.117903 -1.62289 -1.56938
rclavicle -3.33958e-014 -4.92986e-014
rhumerus -21.4744 -3.25263 -48.1105
rradius 33.0028
rwrist -1.37455
rhand -12.7927 -32.9116
rfingers 7.12502
rthumb 13.293 -422.468
lclavicle -3.33958e-014 -4.92986e-014
lhumerus -40.6361 -30.405 96.0349
lradius 84.7334
lwrist 15.3312
lhand -42.9866 2.46879
lfingers 7.12502
lthumb -15.8455 31.8404
rfemur -72.3394 -23.7716 24.3129
rtibia 71.4175
rfoot -18.7862 -19.6832
rtoes -4.88637
lfemur -6.70487 -7.88631 -8.58125
ltibia 20.5464
lfoot -208.311 193.163
ltoes -35.843
199
root 7.18753 14.1573 15.6775 -151.156 -24.7229 -191.852
lowerback 24.616 -0.114104 2.90993
upperback 3.72489 -0.0319472 -0.827617
thorax -9.58022 -0.358286 -2.54335
lowerneck -8.2069 -1.7446 -1.03403
upperneck -2.88542 -2.51493 -3.91906
head 0.43019 -1.41458 -1.10693
rclavicle -6.36111e-015 4.29375e-014
rhumerus -23.9623 -2.96325 -49.7183
rradius 33.8406
rwrist -0.90684
rhand -13.1463 -31.8761
rfingers 7.12502
rthumb 12.9521 -421.454
lclavicle -6.36111e-015 4.29375e-014
lhumerus -40.9681 -31.77 97.8852
lradius 88.4574
lwrist 15.2416
lhand -41.2495 0.147037
lfingers 7.12502
lthumb -14.1721 29.6436
rfemur -69.691 -23.4529 23.684
rtibia 68.7065
rfoot -17.031 -18.6879
rtoes -5.04754
lfemur -5.30212 -6.27923 -9.08381
ltibia 20.2317
lfoot -207.014 191.163
ltoes -36.5948
